<svg width="64" height="64" viewBox="0 0 64 64" fill="none" xmlns="http://www.w3.org/2000/svg">
<rect width="64" height="64" rx="31" fill="#0064D2" fill-opacity="0.06"/>
<rect x="0.25" y="0.25" width="63.5" height="63.5" rx="30.75" stroke="#0064D2" stroke-opacity="0.25" stroke-width="0.5"/>
<path d="M39 34V26C39 24.9 38.1 24 37 24H23C21.9 24 21 24.9 21 26V34C21 35.1 21.9 36 23 36H37C38.1 36 39 35.1 39 34ZM30 33C28.34 33 27 31.66 27 30C27 28.34 28.34 27 30 27C31.66 27 33 28.34 33 30C33 31.66 31.66 33 30 33ZM43 27V38C43 39.1 42.1 40 41 40H24V38H41V27H43Z" fill="#0064D2"/>
</svg>
