<?xml version="1.0" encoding="UTF-8"?>
<svg width="106px" height="106px" viewBox="0 0 106 106" version="1.1" xmlns="http://www.w3.org/2000/svg" xmlns:xlink="http://www.w3.org/1999/xlink">
    <title>编组 3</title>
    <defs>
        <rect id="path-1" x="17" y="17" width="72" height="72" rx="31"></rect>
        <filter x="-35.4%" y="-35.4%" width="170.8%" height="170.8%" filterUnits="objectBoundingBox" id="filter-2">
            <feOffset dx="0" dy="0" in="SourceAlpha" result="shadowOffsetOuter1"></feOffset>
            <feGaussianBlur stdDeviation="8.5" in="shadowOffsetOuter1" result="shadowBlurOuter1"></feGaussianBlur>
            <feColorMatrix values="0 0 0 0 0.741176471   0 0 0 0 0.823529412   0 0 0 0 0.905882353  0 0 0 0.372432255 0" type="matrix" in="shadowBlurOuter1"></feColorMatrix>
        </filter>
    </defs>
    <g id="官网B" stroke="none" stroke-width="1" fill="none" fill-rule="evenodd">
        <g id="验证码短信" transform="translate(-824.000000, -1359.000000)">
            <g id="2" transform="translate(1.000000, 1231.000000)">
                <g id="编组-5" transform="translate(728.000000, 113.000000)">
                    <g id="编组-3" transform="translate(95.000000, 15.000000)">
                        <rect id="矩形" fill="#FFFFFF" x="0" y="0" width="104" height="104" rx="31"></rect>
                        <g id="矩形">
                            <use fill="black" fill-opacity="1" filter="url(#filter-2)" xlink:href="#path-1"></use>
                            <use fill="#FFFFFF" fill-rule="evenodd" xlink:href="#path-1"></use>
                        </g>
                        <g id="身份" transform="translate(39.000000, 42.000000)" fill="#76A1D1" fill-rule="nonzero">
                            <path d="M12.3846154,11.0549451 C12.8461539,10.5054945 13.1923077,9.84615386 13.1923077,9.07692308 C13.1923077,7.42857144 11.8076923,6 9.96153847,6 C8.11538464,6 6.73076923,7.31868132 6.73076923,9.07692308 C6.73076923,9.84615386 7.07692308,10.5054945 7.53846155,11.0549451 C6.03846154,11.8241758 5,13.3626374 5,15.1208791 C5,15.5604396 5.34615385,16 5.92307691,16 C6.5,16 6.84615383,15.6703297 6.84615386,15.1208791 C6.84615386,13.3626374 8.23076924,12.043956 9.96153847,12.043956 C11.6923077,12.043956 13.1923077,13.3626374 13.1923077,15.1208791 C13.1923077,15.5604396 13.5384615,16 14.1153846,16 C14.6923077,16 15.0384615,15.6703297 15.0384615,15.1208791 C14.9230769,13.3626373 13.8846154,11.8241758 12.3846154,11.0549451 Z M8.46153846,8.96703296 C8.46153846,8.30769231 9.15384615,7.64835165 9.96153846,7.64835165 C10.7692308,7.64835165 11.3461539,8.30769231 11.3461539,8.96703296 C11.3461539,9.62637362 10.6538462,10.2857143 9.96153846,10.2857143 C9.26923078,10.2857143 8.46153846,9.73626374 8.46153846,8.96703296 L8.46153846,8.96703296 Z M22.0769231,7.86813186 L16.3076923,7.86813186 C15.8461538,7.86813186 15.3846154,8.19780219 15.3846154,8.74725275 C15.3846154,9.29670332 15.7307692,9.62637362 16.3076923,9.62637362 L22.0769231,9.62637362 C22.5384616,9.62637362 23,9.29670329 23,8.74725275 C23,8.19780221 22.5384615,7.86813186 22.0769231,7.86813186 Z M22.0769231,12.2637363 L18.0384615,12.2637363 C17.5769231,12.2637363 17.1153846,12.5934066 17.1153846,13.1428571 C17.1153846,13.6923077 17.4615385,14.021978 18.0384615,14.021978 L22.0769231,14.021978 C22.5384616,14.021978 23,13.6923077 23,13.1428571 C23,12.5934066 22.5384615,12.2637363 22.0769231,12.2637363 Z" id="形状"></path>
                            <path d="M24.5,0 L3.5,0 C1.51666668,0 0,1.50526317 0,3.47368421 L0,18.5263158 C0,20.4947368 1.51666668,22 3.5,22 L24.5,22 C26.4833333,22 28,20.4947368 28,18.5263158 L28,3.47368421 C28,1.50526317 26.4833333,0 24.5,0 Z M26.0178279,18.8408036 C26.0178279,19.5355404 25.5511613,19.9986983 24.8511613,19.9986983 L3.18934915,19.9986983 C2.48934915,19.9986983 2.02268247,19.5355404 2.02268247,18.8408036 L2.02268247,3.0296291 C2.02268247,2.33489226 2.48934915,1.87173435 3.18934915,1.87173435 L24.8511613,1.87173435 C25.5511613,1.87173435 26.0178279,2.33489226 26.0178279,3.0296291 L26.0178279,18.8408036 Z" id="形状"></path>
                        </g>
                    </g>
                </g>
            </g>
        </g>
    </g>
</svg>