<?xml version="1.0" encoding="UTF-8"?>
<svg width="106px" height="106px" viewBox="0 0 106 106" version="1.1" xmlns="http://www.w3.org/2000/svg" xmlns:xlink="http://www.w3.org/1999/xlink">
    <title>编组 3</title>
    <defs>
        <rect id="path-1" x="16" y="16" width="72" height="72" rx="31"></rect>
        <filter x="-35.4%" y="-35.4%" width="170.8%" height="170.8%" filterUnits="objectBoundingBox" id="filter-2">
            <feOffset dx="0" dy="0" in="SourceAlpha" result="shadowOffsetOuter1"></feOffset>
            <feGaussianBlur stdDeviation="8.5" in="shadowOffsetOuter1" result="shadowBlurOuter1"></feGaussianBlur>
            <feColorMatrix values="0 0 0 0 0.741176471   0 0 0 0 0.823529412   0 0 0 0 0.905882353  0 0 0 0.372432255 0" type="matrix" in="shadowBlurOuter1"></feColorMatrix>
        </filter>
    </defs>
    <g id="官网B" stroke="none" stroke-width="1" fill="none" fill-rule="evenodd">
        <g id="验证码短信" transform="translate(-200.000000, -1359.000000)">
            <g id="2" transform="translate(1.000000, 1231.000000)">
                <g id="编组-5" transform="translate(104.000000, 113.000000)">
                    <g id="编组-3" transform="translate(96.000000, 16.000000)">
                        <circle id="椭圆形" cx="52" cy="52" r="52"></circle>
                        <g id="矩形">
                            <use fill="black" fill-opacity="1" filter="url(#filter-2)" xlink:href="#path-1"></use>
                            <use fill="#FFFFFF" fill-rule="evenodd" xlink:href="#path-1"></use>
                        </g>
                        <g id="钥匙" transform="translate(53.085786, 56.500000) scale(1, -1) rotate(-315.000000) translate(-53.085786, -56.500000) translate(41.050253, 44.464466)" fill="#76A1D1" fill-rule="nonzero">
                            <path d="M16.5710678,15 C14.5676076,15 12.6835246,14.2188581 11.2665695,12.8044983 C9.85220968,11.3875433 9.07106781,9.50346021 9.07106781,7.5 C9.07106781,5.49653979 9.85220968,3.61245675 11.2665695,2.19550173 C12.6835246,0.781141869 14.5676076,4.54747351e-13 16.5710678,4.54747351e-13 C18.574528,4.54747351e-13 20.4586111,0.781141869 21.8755661,2.19550173 C23.2899259,3.61245675 24.0710678,5.49653979 24.0710678,7.5 C24.0710678,9.50346021 23.2899259,11.3875433 21.8755661,12.8044983 C20.4586111,14.2188581 18.574528,15 16.5710678,15 Z M16.5710678,1.55709343 C14.9828325,1.55709343 13.490618,2.17474048 12.3695107,3.29844291 C11.2484035,4.42214533 10.6281612,5.91176471 10.6281612,7.5 C10.6281612,9.08823529 11.2458083,10.5804498 12.3695107,11.7015571 C13.4932131,12.8226644 14.9828325,13.4429066 16.5710678,13.4429066 C18.1593031,13.4429066 19.6515176,12.8252595 20.7726249,11.7015571 C21.8963273,10.5804498 22.5139744,9.08823529 22.5139744,7.5 C22.5139744,5.91176471 21.8963273,4.41955017 20.7726249,3.29844291 C19.6515176,2.17474048 18.1593031,1.55709343 16.5710678,1.55709343 Z" id="形状"></path>
                            <path d="M16.4287749,10.213518 C15.0105413,10.213518 13.8575499,9.0605265 13.8575499,7.64229288 C13.8575499,6.22405926 15.0105413,5.07106781 16.4287749,5.07106781 C17.8470085,5.07106781 19,6.22405926 19,7.64229288 C19,9.0605265 17.8470085,10.213518 16.4287749,10.213518 Z M16.4287749,6.69499944 C15.9064103,6.69499944 15.4814815,7.11992821 15.4814815,7.64229288 C15.4814815,8.16465756 15.9064103,8.58958633 16.4287749,8.58958633 C16.9511396,8.58958633 17.3760684,8.16465756 17.3760684,7.64229288 C17.3760684,7.11992821 16.9511396,6.69499944 16.4287749,6.69499944 Z M0.811965812,24.0710678 C0.595441595,24.0710678 0.38974359,23.9844581 0.238176638,23.8328912 C0.0866096866,23.6813242 -2.84217094e-13,23.4756262 -2.84217094e-13,23.259102 L-2.84217094e-13,18.9827487 C-2.84217094e-13,18.7662245 0.0866096866,18.5605265 0.238176638,18.4089595 L9.24287749,9.4042587 C9.44045584,9.20668035 9.72464387,9.12548377 9.99529915,9.18773448 C10.2659544,9.24998519 10.4878917,9.44756354 10.5826211,9.71009915 C10.8884615,10.5734895 11.3945869,11.3746291 12.0468661,12.0269083 C12.6991453,12.6791875 13.5002849,13.1853128 14.3636752,13.4911533 C14.6262108,13.5831761 14.8237892,13.8051134 14.8860399,14.0784752 C14.9482906,14.3491305 14.8643875,14.6360251 14.6695157,14.8308969 L10.8586895,18.63631 C10.7071225,18.7878769 10.4987179,18.8744866 10.2849003,18.8744866 L8.4985755,18.8744866 L8.4985755,20.6608114 C8.4985755,21.1100992 8.13589744,21.4727772 7.68660969,21.4727772 L5.9002849,21.4727772 L5.9002849,23.259102 C5.9002849,23.7083897 5.53760684,24.0710678 5.08831909,24.0710678 L0.811965812,24.0710678 Z M1.62393162,22.4471362 L4.27635328,22.4471362 L4.27635328,20.6608114 C4.27635328,20.2115237 4.63903134,19.8488456 5.08831909,19.8488456 L6.87464387,19.8488456 L6.87464387,18.0625208 C6.87464387,17.6132331 7.23732194,17.250555 7.68660969,17.250555 L9.94928775,17.250555 L12.6883191,14.5115237 C12.0333333,14.1542587 11.4270655,13.7022644 10.8992877,13.1717801 C10.37151,12.6440023 9.91951567,12.0377345 9.55954416,11.3827487 L1.62393162,19.3183613 L1.62393162,22.4471362 Z" id="形状"></path>
                        </g>
                        <text id="*-*-*" font-family="Roboto-Bold, Roboto" font-size="12" font-weight="bold" fill="#76A1D1">
                            <tspan x="38" y="50">* * *</tspan>
                        </text>
                    </g>
                </g>
            </g>
        </g>
    </g>
</svg>