<?xml version="1.0" encoding="UTF-8"?>
<svg width="107px" height="107px" viewBox="0 0 107 107" version="1.1" xmlns="http://www.w3.org/2000/svg" xmlns:xlink="http://www.w3.org/1999/xlink">
    <title>编组 3</title>
    <defs>
        <rect id="path-1" x="18" y="18" width="72" height="72" rx="31"></rect>
        <filter x="-35.4%" y="-35.4%" width="170.8%" height="170.8%" filterUnits="objectBoundingBox" id="filter-2">
            <feOffset dx="0" dy="0" in="SourceAlpha" result="shadowOffsetOuter1"></feOffset>
            <feGaussianBlur stdDeviation="8.5" in="shadowOffsetOuter1" result="shadowBlurOuter1"></feGaussianBlur>
            <feColorMatrix values="0 0 0 0 0.741176471   0 0 0 0 0.823529412   0 0 0 0 0.905882353  0 0 0 0.372432255 0" type="matrix" in="shadowBlurOuter1"></feColorMatrix>
        </filter>
    </defs>
    <g id="官网B" stroke="none" stroke-width="1" fill="none" fill-rule="evenodd">
        <g id="验证码短信" transform="translate(-1135.000000, -1358.000000)">
            <g id="2" transform="translate(1.000000, 1231.000000)">
                <g id="编组-5" transform="translate(1040.000000, 113.000000)">
                    <g id="编组-3" transform="translate(94.000000, 14.000000)">
                        <rect id="矩形" fill="#FFFFFF" x="0" y="0" width="104" height="104" rx="31"></rect>
                        <g id="矩形">
                            <use fill="black" fill-opacity="1" filter="url(#filter-2)" xlink:href="#path-1"></use>
                            <use fill="#FFFFFF" fill-rule="evenodd" xlink:href="#path-1"></use>
                        </g>
                        <g id="文件确认" transform="translate(43.000000, 42.000000)" fill="#76A1D1" fill-rule="nonzero">
                            <path d="M5.06145806,8.0689553 L15.4310868,8.0689553 C16.0135279,8.0689553 16.4925448,7.60476661 16.4925448,7.03447765 C16.4925448,6.4668412 16.0162496,6 15.4310868,6 L5.06145806,6 C4.47901697,6 4,6.46418869 4,7.03447765 C4,7.6021141 4.47629528,8.0689553 5.06145806,8.0689553 Z M4,11.8355149 C4,12.4031514 4.47629528,12.8699926 5.06145806,12.8699926 L15.4310868,12.8699926 C16.0135279,12.8699926 16.4925448,12.4058039 16.4925448,11.8355149 C16.4925448,11.2678785 16.0162496,10.8010373 15.4310868,10.8010373 L5.06145806,10.8010373 C4.47629528,10.8010373 4,11.265226 4,11.8355149 Z M20.643118,16.9468955 C20.1641011,16.4800543 19.3884202,16.4800543 18.9121249,16.9468955 L14.6145806,21.1325513 L13.131261,19.6869351 C12.6549657,19.2227464 11.8765631,19.2227464 11.4002678,19.6869351 C10.9239726,20.1511237 10.9239726,20.9097407 11.4002678,21.3739294 L13.7381973,23.6524327 C13.9804274,23.8885058 14.2988649,24.0025636 14.6145806,23.9999563 C14.9302963,24.0025636 15.2487337,23.8858533 15.4909639,23.6497802 L20.6403963,18.6312374 C21.1194133,18.1670487 21.1194133,17.4137367 20.643118,16.9468955 Z" id="形状"></path>
                            <path d="M22,1.3412317 C22,0.600871801 21.377542,0 20.6105848,0 L1.38941518,0 C0.622458002,0 0,0.600871801 0,1.3412317 L0,22.6587683 C0,23.3991282 0.622458002,24 1.38941518,24 L9.92876089,24 C10.5067576,23.9919526 10.9708223,23.5386163 10.9708223,22.9806639 C10.9708223,22.4227115 10.5067576,21.9693752 9.92876089,21.9613278 L2.11191108,21.9613278 L2.11191108,2.03867218 L19.8880889,2.03867218 L19.8880889,13.2728289 C19.8880889,13.8361462 20.3604901,14.292165 20.9440445,14.292165 C21.5275988,14.292165 22,13.8361462 22,13.2728289 L22,1.3412317 Z" id="路径"></path>
                        </g>
                    </g>
                </g>
            </g>
        </g>
    </g>
</svg>