<svg width="64" height="64" viewBox="0 0 64 64" fill="none" xmlns="http://www.w3.org/2000/svg">
<rect width="64" height="64" rx="31" fill="#F5AF02" fill-opacity="0.06"/>
<rect x="0.25" y="0.25" width="63.5" height="63.5" rx="30.75" stroke="#F5AF02" stroke-opacity="0.25" stroke-width="0.5"/>
<path d="M25.373 24.51C27.1997 22.8894 29.558 21.9962 32 22C37.523 22 42 26.477 42 32C42.0033 34.0439 41.3772 36.0393 40.207 37.715L37.5 32H40C40 30.4094 39.5259 28.8548 38.6381 27.535C37.7504 26.2151 36.4893 25.1898 35.016 24.5902C33.5428 23.9905 31.9242 23.8436 30.367 24.1683C28.8099 24.493 27.3848 25.2745 26.274 26.413L25.374 24.511L25.373 24.51ZM38.627 39.49C36.8003 41.1106 34.442 42.0039 32 42C26.477 42 22 37.523 22 32C22 29.875 22.663 27.905 23.793 26.285L26.5 32H24C24 33.5907 24.4741 35.1452 25.3619 36.4651C26.2496 37.7849 27.5107 38.8102 28.984 39.4099C30.4572 40.0095 32.0758 40.1564 33.633 39.8317C35.1901 39.507 36.6152 38.7255 37.726 37.587L38.626 39.489L38.627 39.49ZM28.5 34H34C34.1326 34 34.2598 33.9473 34.3536 33.8536C34.4473 33.7598 34.5 33.6326 34.5 33.5C34.5 33.3674 34.4473 33.2402 34.3536 33.1465C34.2598 33.0527 34.1326 33 34 33H30C29.337 33 28.7011 32.7366 28.2322 32.2678C27.7634 31.7989 27.5 31.1631 27.5 30.5C27.5 29.837 27.7634 29.2011 28.2322 28.7322C28.7011 28.2634 29.337 28 30 28H31V27H33V28H35.5V30H30C29.8674 30 29.7402 30.0527 29.6464 30.1465C29.5527 30.2402 29.5 30.3674 29.5 30.5C29.5 30.6326 29.5527 30.7598 29.6464 30.8536C29.7402 30.9473 29.8674 31 30 31H34C34.663 31 35.2989 31.2634 35.7678 31.7322C36.2366 32.2011 36.5 32.837 36.5 33.5C36.5 34.1631 36.2366 34.7989 35.7678 35.2678C35.2989 35.7366 34.663 36 34 36H33V37H31V36H28.5V34Z" fill="#F5AF02"/>
</svg>
