<?xml version="1.0" encoding="UTF-8"?>
<svg width="108px" height="108px" viewBox="0 0 108 108" version="1.1" xmlns="http://www.w3.org/2000/svg" xmlns:xlink="http://www.w3.org/1999/xlink">
    <title>编组 3</title>
    <defs>
        <rect id="path-1" x="15.2941176" y="15.2941176" width="73.4117647" height="73.4117647" rx="31"></rect>
        <filter x="-34.7%" y="-34.7%" width="169.5%" height="169.5%" filterUnits="objectBoundingBox" id="filter-2">
            <feOffset dx="0" dy="0" in="SourceAlpha" result="shadowOffsetOuter1"></feOffset>
            <feGaussianBlur stdDeviation="8.5" in="shadowOffsetOuter1" result="shadowBlurOuter1"></feGaussianBlur>
            <feColorMatrix values="0 0 0 0 0.741176471   0 0 0 0 0.823529412   0 0 0 0 0.905882353  0 0 0 0.372432255 0" type="matrix" in="shadowBlurOuter1"></feColorMatrix>
        </filter>
    </defs>
    <g id="官网B" stroke="none" stroke-width="1" fill="none" fill-rule="evenodd">
        <g id="验证码短信" transform="translate(-512.000000, -1359.000000)">
            <g id="2" transform="translate(1.000000, 1231.000000)">
                <g id="编组-5" transform="translate(416.000000, 113.000000)">
                    <g id="编组-3" transform="translate(97.000000, 17.000000)">
                        <rect id="矩形" x="0" y="0" width="104" height="104" rx="31"></rect>
                        <g id="矩形">
                            <use fill="black" fill-opacity="1" filter="url(#filter-2)" xlink:href="#path-1"></use>
                            <use fill="#FFFFFF" fill-rule="evenodd" xlink:href="#path-1"></use>
                        </g>
                        <g id="安全-(2)" transform="translate(39.764706, 37.725490)" fill="#76A1D1" fill-rule="nonzero">
                            <path d="M23.7110969,2.11764706 L12.4795247,0 L12.1229668,0 L0.891394621,2.11764706 C0.356557848,2.11764706 0,2.64705882 0,3.17647059 L0,16.2352941 C0,18.3529412 0.713115697,20.2941176 1.96106817,21.8823529 C3.03074171,23.2941176 4.27869418,24.5294118 6.06148342,25.5882353 C8.91394621,27.3529412 11.766409,28.2352941 11.9446879,28.2352941 L12.4795247,28.2352941 C12.6578036,28.2352941 15.5102664,27.3529412 18.3627292,25.5882353 C20.1455184,24.5294118 21.3934709,23.2941176 22.4631444,21.8823529 C23.7110969,20.1176471 24.4242126,18.1764706 24.4242126,16.2352941 L24.4242126,3.17647059 C24.6024915,2.64705882 24.2459337,2.29411765 23.7110969,2.11764706 Z M22.4631444,16.2352941 C22.4631444,19.2352941 20.6803552,21.7058824 17.4713346,23.8235294 C16.0451032,24.7058824 14.4405929,25.4117647 12.4795247,26.1176471 L12.3012458,26.1176471 C5.52664665,23.8235294 2.13934709,20.4705882 2.13934709,16.2352941 L2.13934709,4.23529412 C2.13934709,4.05882353 2.13934709,4.05882353 2.31762601,4.05882353 L12.3012458,2.29411765 L12.4795247,2.29411765 L22.2848655,4.05882353 C22.4631444,4.05882353 22.4631444,4.23529412 22.4631444,4.23529412 L22.4631444,16.2352941 Z" id="形状"></path>
                            <path d="M17.14028,9.66625858 L9.79366203,15.5088146 L6.38913175,12.9526963 C5.85157433,12.5875366 5.31401692,12.5875366 4.95564531,13.1352762 C4.5972737,13.5004359 4.5972737,14.2307554 5.13483111,14.5959152 L9.07691881,17.6997731 C9.25610462,17.8823529 9.43529042,17.8823529 9.61447623,17.8823529 C9.97284784,17.8823529 10.1520336,17.8823529 10.3312194,17.6997731 L18.3945807,11.3094775 C18.9321381,10.9443177 18.9321381,10.2139982 18.5737665,9.84883845 C18.3945807,9.30109883 17.6778374,9.30109883 17.14028,9.66625858 L17.14028,9.66625858 Z" id="路径"></path>
                        </g>
                    </g>
                </g>
            </g>
        </g>
    </g>
</svg>